{
	"asset":{
		"generator":"Khronos glTF Blender I/O v4.5.47",
		"version":"2.0"
	},
	"scene":0,
	"scenes":[
		{
			"name":"Scene",
			"nodes":[
				0
			]
		}
	],
	"nodes":[
		{
			"mesh":0,
			"name":"SM_Cathedral_02"
		}
	],
	"materials":[
		{
			"doubleSided":true,
			"name":"M_BuildingWalls_01",
			"normalTexture":{
				"index":0
			},
			"pbrMetallicRoughness":{
				"baseColorTexture":{
					"index":1
				},
				"metallicFactor":0,
				"metallicRoughnessTexture":{
					"index":2
				}
			}
		},
		{
			"doubleSided":true,
			"name":"M_BuildingWindow_01",
			"pbrMetallicRoughness":{
				"baseColorFactor":[
					0.800000011920929,
					0.800000011920929,
					0.800000011920929,
					1
				],
				"roughnessFactor":0
			}
		},
		{
			"doubleSided":true,
			"name":"M_BuildingFacade_01",
			"normalTexture":{
				"index":3
			},
			"pbrMetallicRoughness":{
				"baseColorTexture":{
					"index":4
				},
				"metallicFactor":0,
				"metallicRoughnessTexture":{
					"index":5
				}
			}
		},
		{
			"doubleSided":true,
			"name":"M_BuildingRoof_01",
			"normalTexture":{
				"index":6
			},
			"pbrMetallicRoughness":{
				"baseColorTexture":{
					"index":7
				},
				"metallicFactor":0,
				"metallicRoughnessTexture":{
					"index":8
				}
			}
		},
		{
			"doubleSided":true,
			"name":"M_BuildingDoor_01",
			"normalTexture":{
				"index":9
			},
			"pbrMetallicRoughness":{
				"baseColorTexture":{
					"index":10
				},
				"metallicFactor":0,
				"metallicRoughnessTexture":{
					"index":11
				}
			}
		}
	],
	"meshes":[
		{
			"name":"Cube.003",
			"primitives":[
				{
					"attributes":{
						"POSITION":0,
						"NORMAL":1,
						"TEXCOORD_0":2
					},
					"indices":3,
					"material":0
				},
				{
					"attributes":{
						"POSITION":4,
						"NORMAL":5,
						"TEXCOORD_0":6
					},
					"indices":7,
					"material":1
				},
				{
					"attributes":{
						"POSITION":8,
						"NORMAL":9,
						"TEXCOORD_0":10
					},
					"indices":11,
					"material":2
				},
				{
					"attributes":{
						"POSITION":12,
						"NORMAL":13,
						"TEXCOORD_0":14
					},
					"indices":15,
					"material":3
				},
				{
					"attributes":{
						"POSITION":16,
						"NORMAL":17,
						"TEXCOORD_0":18
					},
					"indices":19,
					"material":4
				}
			]
		}
	],
	"textures":[
		{
			"sampler":0,
			"source":0
		},
		{
			"sampler":0,
			"source":1
		},
		{
			"sampler":0,
			"source":2
		},
		{
			"sampler":0,
			"source":3
		},
		{
			"sampler":0,
			"source":4
		},
		{
			"sampler":0,
			"source":5
		},
		{
			"sampler":0,
			"source":6
		},
		{
			"sampler":0,
			"source":7
		},
		{
			"sampler":0,
			"source":8
		},
		{
			"sampler":0,
			"source":9
		},
		{
			"sampler":0,
			"source":10
		},
		{
			"sampler":0,
			"source":11
		}
	],
	"images":[
		{
			"mimeType":"image/jpeg",
			"name":"T_BuildingWalls_01_nor_gl",
			"uri":"textures/T_BuildingWalls_01_nor_gl.jpg"
		},
		{
			"mimeType":"image/jpeg",
			"name":"T_BuildingWalls_01_diff",
			"uri":"textures/T_BuildingWalls_01_diff.jpg"
		},
		{
			"mimeType":"image/png",
			"name":"T_BuildingWalls_01_rough",
			"uri":"textures/T_BuildingWalls_01_rough.png"
		},
		{
			"mimeType":"image/jpeg",
			"name":"T_BuildingFacade_01_nor_gl",
			"uri":"textures/T_BuildingFacade_01_nor_gl.jpg"
		},
		{
			"mimeType":"image/jpeg",
			"name":"T_BuildingFacade_01_diff",
			"uri":"textures/T_BuildingFacade_01_diff.jpg"
		},
		{
			"mimeType":"image/png",
			"name":"T_BuildingFacade_01_rough",
			"uri":"textures/T_BuildingFacade_01_rough.png"
		},
		{
			"mimeType":"image/jpeg",
			"name":"T_BuildingRoof_01_nor_gl",
			"uri":"textures/T_BuildingRoof_01_nor_gl.jpg"
		},
		{
			"mimeType":"image/jpeg",
			"name":"T_BuildingRoof_01_diff",
			"uri":"textures/T_BuildingRoof_01_diff.jpg"
		},
		{
			"mimeType":"image/png",
			"name":"T_BuildingRoof_01_rough",
			"uri":"textures/T_BuildingRoof_01_rough.png"
		},
		{
			"mimeType":"image/jpeg",
			"name":"T_BuildingDoor_01_nor_gl",
			"uri":"textures/T_BuildingDoor_01_nor_gl.jpg"
		},
		{
			"mimeType":"image/jpeg",
			"name":"T_BuildingDoor_01_diff",
			"uri":"textures/T_BuildingDoor_01_diff.jpg"
		},
		{
			"mimeType":"image/png",
			"name":"T_BuildingDoor_01_rough",
			"uri":"textures/T_BuildingDoor_01_rough.png"
		}
	],
	"accessors":[
		{
			"bufferView":0,
			"componentType":5126,
			"count":369,
			"max":[
				30,
				43,
				10
			],
			"min":[
				-30,
				0,
				-10
			],
			"type":"VEC3"
		},
		{
			"bufferView":1,
			"componentType":5126,
			"count":369,
			"type":"VEC3"
		},
		{
			"bufferView":2,
			"componentType":5126,
			"count":369,
			"type":"VEC2"
		},
		{
			"bufferView":3,
			"componentType":5123,
			"count":1206,
			"type":"SCALAR"
		},
		{
			"bufferView":4,
			"componentType":5126,
			"count":144,
			"max":[
				21.439998626708984,
				41.40150451660156,
				9.699999809265137
			],
			"min":[
				-21.439998626708984,
				1.561635971069336,
				-4.699999809265137
			],
			"type":"VEC3"
		},
		{
			"bufferView":5,
			"componentType":5126,
			"count":144,
			"type":"VEC3"
		},
		{
			"bufferView":6,
			"componentType":5126,
			"count":144,
			"type":"VEC2"
		},
		{
			"bufferView":7,
			"componentType":5123,
			"count":312,
			"type":"SCALAR"
		},
		{
			"bufferView":8,
			"componentType":5126,
			"count":1622,
			"max":[
				30,
				60,
				10.5
			],
			"min":[
				-30,
				9.5367431640625e-07,
				-5.5
			],
			"type":"VEC3"
		},
		{
			"bufferView":9,
			"componentType":5126,
			"count":1622,
			"type":"VEC3"
		},
		{
			"bufferView":10,
			"componentType":5126,
			"count":1622,
			"type":"VEC2"
		},
		{
			"bufferView":11,
			"componentType":5123,
			"count":3342,
			"type":"SCALAR"
		},
		{
			"bufferView":12,
			"componentType":5126,
			"count":47,
			"max":[
				30,
				35,
				10
			],
			"min":[
				-30,
				30,
				-10
			],
			"type":"VEC3"
		},
		{
			"bufferView":13,
			"componentType":5126,
			"count":47,
			"type":"VEC3"
		},
		{
			"bufferView":14,
			"componentType":5126,
			"count":47,
			"type":"VEC2"
		},
		{
			"bufferView":15,
			"componentType":5123,
			"count":96,
			"type":"SCALAR"
		},
		{
			"bufferView":16,
			"componentType":5126,
			"count":9,
			"max":[
				4,
				5.000000476837158,
				9.699999809265137
			],
			"min":[
				-4,
				9.5367431640625e-07,
				9.699999809265137
			],
			"type":"VEC3"
		},
		{
			"bufferView":17,
			"componentType":5126,
			"count":9,
			"type":"VEC3"
		},
		{
			"bufferView":18,
			"componentType":5126,
			"count":9,
			"type":"VEC2"
		},
		{
			"bufferView":19,
			"componentType":5123,
			"count":24,
			"type":"SCALAR"
		}
	],
	"bufferViews":[
		{
			"buffer":0,
			"byteLength":4428,
			"byteOffset":0,
			"target":34962
		},
		{
			"buffer":0,
			"byteLength":4428,
			"byteOffset":4428,
			"target":34962
		},
		{
			"buffer":0,
			"byteLength":2952,
			"byteOffset":8856,
			"target":34962
		},
		{
			"buffer":0,
			"byteLength":2412,
			"byteOffset":11808,
			"target":34963
		},
		{
			"buffer":0,
			"byteLength":1728,
			"byteOffset":14220,
			"target":34962
		},
		{
			"buffer":0,
			"byteLength":1728,
			"byteOffset":15948,
			"target":34962
		},
		{
			"buffer":0,
			"byteLength":1152,
			"byteOffset":17676,
			"target":34962
		},
		{
			"buffer":0,
			"byteLength":624,
			"byteOffset":18828,
			"target":34963
		},
		{
			"buffer":0,
			"byteLength":19464,
			"byteOffset":19452,
			"target":34962
		},
		{
			"buffer":0,
			"byteLength":19464,
			"byteOffset":38916,
			"target":34962
		},
		{
			"buffer":0,
			"byteLength":12976,
			"byteOffset":58380,
			"target":34962
		},
		{
			"buffer":0,
			"byteLength":6684,
			"byteOffset":71356,
			"target":34963
		},
		{
			"buffer":0,
			"byteLength":564,
			"byteOffset":78040,
			"target":34962
		},
		{
			"buffer":0,
			"byteLength":564,
			"byteOffset":78604,
			"target":34962
		},
		{
			"buffer":0,
			"byteLength":376,
			"byteOffset":79168,
			"target":34962
		},
		{
			"buffer":0,
			"byteLength":192,
			"byteOffset":79544,
			"target":34963
		},
		{
			"buffer":0,
			"byteLength":108,
			"byteOffset":79736,
			"target":34962
		},
		{
			"buffer":0,
			"byteLength":108,
			"byteOffset":79844,
			"target":34962
		},
		{
			"buffer":0,
			"byteLength":72,
			"byteOffset":79952,
			"target":34962
		},
		{
			"buffer":0,
			"byteLength":48,
			"byteOffset":80024,
			"target":34963
		}
	],
	"samplers":[
		{
			"magFilter":9728,
			"minFilter":9984
		}
	],
	"buffers":[
		{
			"byteLength":80072,
			"uri":"SM_Cathedral_02.bin"
		}
	]
}
