{
	"asset":{
		"generator":"Khronos glTF Blender I/O v4.5.47",
		"version":"2.0"
	},
	"scene":0,
	"scenes":[
		{
			"name":"Scene",
			"nodes":[
				0
			]
		}
	],
	"nodes":[
		{
			"mesh":0,
			"name":"SM_FenceEnd_01"
		}
	],
	"materials":[
		{
			"doubleSided":true,
			"name":"M_BuildingFacade_01",
			"normalTexture":{
				"index":0
			},
			"pbrMetallicRoughness":{
				"baseColorTexture":{
					"index":1
				},
				"metallicFactor":0,
				"metallicRoughnessTexture":{
					"index":2
				}
			}
		}
	],
	"meshes":[
		{
			"name":"Cube.006",
			"primitives":[
				{
					"attributes":{
						"POSITION":0,
						"NORMAL":1,
						"TEXCOORD_0":2
					},
					"indices":3,
					"material":0
				}
			]
		}
	],
	"textures":[
		{
			"sampler":0,
			"source":0
		},
		{
			"sampler":0,
			"source":1
		},
		{
			"sampler":0,
			"source":2
		}
	],
	"images":[
		{
			"mimeType":"image/jpeg",
			"name":"T_BuildingFacade_01_nor_gl",
			"uri":"textures/T_BuildingFacade_01_nor_gl.jpg"
		},
		{
			"mimeType":"image/jpeg",
			"name":"T_BuildingFacade_01_diff",
			"uri":"textures/T_BuildingFacade_01_diff.jpg"
		},
		{
			"mimeType":"image/png",
			"name":"T_BuildingFacade_01_rough",
			"uri":"textures/T_BuildingFacade_01_rough.png"
		}
	],
	"accessors":[
		{
			"bufferView":0,
			"componentType":5126,
			"count":156,
			"max":[
				0.4000000059604645,
				2.3999998569488525,
				0.4000000059604645
			],
			"min":[
				-0.4000000059604645,
				0,
				-0.4000000059604645
			],
			"type":"VEC3"
		},
		{
			"bufferView":1,
			"componentType":5126,
			"count":156,
			"type":"VEC3"
		},
		{
			"bufferView":2,
			"componentType":5126,
			"count":156,
			"type":"VEC2"
		},
		{
			"bufferView":3,
			"componentType":5123,
			"count":228,
			"type":"SCALAR"
		}
	],
	"bufferViews":[
		{
			"buffer":0,
			"byteLength":1872,
			"byteOffset":0,
			"target":34962
		},
		{
			"buffer":0,
			"byteLength":1872,
			"byteOffset":1872,
			"target":34962
		},
		{
			"buffer":0,
			"byteLength":1248,
			"byteOffset":3744,
			"target":34962
		},
		{
			"buffer":0,
			"byteLength":456,
			"byteOffset":4992,
			"target":34963
		}
	],
	"samplers":[
		{
			"magFilter":9728,
			"minFilter":9984
		}
	],
	"buffers":[
		{
			"byteLength":5448,
			"uri":"SM_FenceEnd_01.bin"
		}
	]
}
