{
	"asset":{
		"generator":"Khronos glTF Blender I/O v4.5.47",
		"version":"2.0"
	},
	"scene":0,
	"scenes":[
		{
			"name":"Scene",
			"nodes":[
				0
			]
		}
	],
	"nodes":[
		{
			"mesh":0,
			"name":"SM_Fence_01"
		}
	],
	"materials":[
		{
			"doubleSided":true,
			"name":"M_StreetLight_01",
			"normalTexture":{
				"index":0
			},
			"pbrMetallicRoughness":{
				"baseColorTexture":{
					"index":1
				},
				"metallicFactor":0,
				"metallicRoughnessTexture":{
					"index":2
				}
			}
		},
		{
			"doubleSided":true,
			"name":"M_BuildingFacade_01",
			"normalTexture":{
				"index":3
			},
			"pbrMetallicRoughness":{
				"baseColorTexture":{
					"index":4
				},
				"metallicFactor":0,
				"metallicRoughnessTexture":{
					"index":5
				}
			}
		}
	],
	"meshes":[
		{
			"name":"Cube.001",
			"primitives":[
				{
					"attributes":{
						"POSITION":0,
						"NORMAL":1,
						"TEXCOORD_0":2
					},
					"indices":3,
					"material":0
				},
				{
					"attributes":{
						"POSITION":4,
						"NORMAL":5,
						"TEXCOORD_0":6
					},
					"indices":7,
					"material":1
				}
			]
		}
	],
	"textures":[
		{
			"sampler":0,
			"source":0
		},
		{
			"sampler":0,
			"source":1
		},
		{
			"sampler":0,
			"source":2
		},
		{
			"sampler":0,
			"source":3
		},
		{
			"sampler":0,
			"source":4
		},
		{
			"sampler":0,
			"source":5
		}
	],
	"images":[
		{
			"mimeType":"image/jpeg",
			"name":"T_StreetLight_01_nor_gl",
			"uri":"textures/T_StreetLight_01_nor_gl.jpg"
		},
		{
			"mimeType":"image/jpeg",
			"name":"T_StreetLight_01_diff",
			"uri":"textures/T_StreetLight_01_diff.jpg"
		},
		{
			"mimeType":"image/png",
			"name":"T_StreetLight_01_rough",
			"uri":"textures/T_StreetLight_01_rough.png"
		},
		{
			"mimeType":"image/jpeg",
			"name":"T_BuildingFacade_01_nor_gl",
			"uri":"textures/T_BuildingFacade_01_nor_gl.jpg"
		},
		{
			"mimeType":"image/jpeg",
			"name":"T_BuildingFacade_01_diff",
			"uri":"textures/T_BuildingFacade_01_diff.jpg"
		},
		{
			"mimeType":"image/png",
			"name":"T_BuildingFacade_01_rough",
			"uri":"textures/T_BuildingFacade_01_rough.png"
		}
	],
	"accessors":[
		{
			"bufferView":0,
			"componentType":5126,
			"count":1164,
			"max":[
				-0.2999999523162842,
				2.299999952316284,
				0.09999999403953552
			],
			"min":[
				-7.700000286102295,
				0,
				-0.09999999403953552
			],
			"type":"VEC3"
		},
		{
			"bufferView":1,
			"componentType":5126,
			"count":1164,
			"type":"VEC3"
		},
		{
			"bufferView":2,
			"componentType":5126,
			"count":1164,
			"type":"VEC2"
		},
		{
			"bufferView":3,
			"componentType":5123,
			"count":2592,
			"type":"SCALAR"
		},
		{
			"bufferView":4,
			"componentType":5126,
			"count":156,
			"max":[
				0.4000000059604645,
				2.3999998569488525,
				0.4000000059604645
			],
			"min":[
				-0.4000000059604645,
				0,
				-0.4000000059604645
			],
			"type":"VEC3"
		},
		{
			"bufferView":5,
			"componentType":5126,
			"count":156,
			"type":"VEC3"
		},
		{
			"bufferView":6,
			"componentType":5126,
			"count":156,
			"type":"VEC2"
		},
		{
			"bufferView":7,
			"componentType":5123,
			"count":228,
			"type":"SCALAR"
		}
	],
	"bufferViews":[
		{
			"buffer":0,
			"byteLength":13968,
			"byteOffset":0,
			"target":34962
		},
		{
			"buffer":0,
			"byteLength":13968,
			"byteOffset":13968,
			"target":34962
		},
		{
			"buffer":0,
			"byteLength":9312,
			"byteOffset":27936,
			"target":34962
		},
		{
			"buffer":0,
			"byteLength":5184,
			"byteOffset":37248,
			"target":34963
		},
		{
			"buffer":0,
			"byteLength":1872,
			"byteOffset":42432,
			"target":34962
		},
		{
			"buffer":0,
			"byteLength":1872,
			"byteOffset":44304,
			"target":34962
		},
		{
			"buffer":0,
			"byteLength":1248,
			"byteOffset":46176,
			"target":34962
		},
		{
			"buffer":0,
			"byteLength":456,
			"byteOffset":47424,
			"target":34963
		}
	],
	"samplers":[
		{
			"magFilter":9728,
			"minFilter":9984
		}
	],
	"buffers":[
		{
			"byteLength":47880,
			"uri":"SM_Fence_01.bin"
		}
	]
}
