{
	"asset":{
		"generator":"Khronos glTF Blender I/O v4.5.47",
		"version":"2.0"
	},
	"scene":0,
	"scenes":[
		{
			"name":"Scene",
			"nodes":[
				0
			]
		}
	],
	"nodes":[
		{
			"mesh":0,
			"name":"SM_StreetLight_01"
		}
	],
	"materials":[
		{
			"doubleSided":true,
			"name":"M_StreetLight_01",
			"normalTexture":{
				"index":0
			},
			"pbrMetallicRoughness":{
				"baseColorTexture":{
					"index":1
				},
				"metallicFactor":0,
				"metallicRoughnessTexture":{
					"index":2
				}
			}
		}
	],
	"meshes":[
		{
			"name":"Cylinder",
			"primitives":[
				{
					"attributes":{
						"POSITION":0,
						"NORMAL":1,
						"TEXCOORD_0":2
					},
					"indices":3,
					"material":0
				}
			]
		}
	],
	"textures":[
		{
			"sampler":0,
			"source":0
		},
		{
			"sampler":0,
			"source":1
		},
		{
			"sampler":0,
			"source":2
		}
	],
	"images":[
		{
			"mimeType":"image/jpeg",
			"name":"T_StreetLight_01_nor_gl",
			"uri":"textures/T_StreetLight_01_nor_gl.jpg"
		},
		{
			"mimeType":"image/jpeg",
			"name":"T_StreetLight_01_diff",
			"uri":"textures/T_StreetLight_01_diff.jpg"
		},
		{
			"mimeType":"image/png",
			"name":"T_StreetLight_01_rough",
			"uri":"textures/T_StreetLight_01_rough.png"
		}
	],
	"accessors":[
		{
			"bufferView":0,
			"componentType":5126,
			"count":1759,
			"max":[
				0.7759550213813782,
				4,
				0.19500002264976501
			],
			"min":[
				-0.7759550213813782,
				0,
				-0.19500002264976501
			],
			"type":"VEC3"
		},
		{
			"bufferView":1,
			"componentType":5126,
			"count":1759,
			"type":"VEC3"
		},
		{
			"bufferView":2,
			"componentType":5126,
			"count":1759,
			"type":"VEC2"
		},
		{
			"bufferView":3,
			"componentType":5123,
			"count":3036,
			"type":"SCALAR"
		}
	],
	"bufferViews":[
		{
			"buffer":0,
			"byteLength":21108,
			"byteOffset":0,
			"target":34962
		},
		{
			"buffer":0,
			"byteLength":21108,
			"byteOffset":21108,
			"target":34962
		},
		{
			"buffer":0,
			"byteLength":14072,
			"byteOffset":42216,
			"target":34962
		},
		{
			"buffer":0,
			"byteLength":6072,
			"byteOffset":56288,
			"target":34963
		}
	],
	"samplers":[
		{
			"magFilter":9728,
			"minFilter":9984
		}
	],
	"buffers":[
		{
			"byteLength":62360,
			"uri":"SM_StreetLight_01.bin"
		}
	]
}
