{
	"asset":{
		"generator":"Khronos glTF Blender I/O v4.5.47",
		"version":"2.0"
	},
	"scene":0,
	"scenes":[
		{
			"name":"Scene",
			"nodes":[
				0
			]
		}
	],
	"nodes":[
		{
			"mesh":0,
			"name":"SM_House_01"
		}
	],
	"materials":[
		{
			"doubleSided":true,
			"name":"M_BuildingWalls_01",
			"normalTexture":{
				"index":0
			},
			"pbrMetallicRoughness":{
				"baseColorTexture":{
					"index":1
				},
				"metallicFactor":0,
				"metallicRoughnessTexture":{
					"index":2
				}
			}
		},
		{
			"doubleSided":true,
			"name":"M_BuildingFacade_01",
			"normalTexture":{
				"index":3
			},
			"pbrMetallicRoughness":{
				"baseColorTexture":{
					"index":4
				},
				"metallicFactor":0,
				"metallicRoughnessTexture":{
					"index":5
				}
			}
		},
		{
			"doubleSided":true,
			"name":"M_BuildingRoof_01",
			"normalTexture":{
				"index":6
			},
			"pbrMetallicRoughness":{
				"baseColorTexture":{
					"index":7
				},
				"metallicFactor":0,
				"metallicRoughnessTexture":{
					"index":8
				}
			}
		},
		{
			"doubleSided":true,
			"name":"M_BuildingWindow_01",
			"pbrMetallicRoughness":{
				"baseColorFactor":[
					0.800000011920929,
					0.800000011920929,
					0.800000011920929,
					1
				],
				"roughnessFactor":0
			}
		},
		{
			"doubleSided":true,
			"name":"M_BuildingDoor_01",
			"normalTexture":{
				"index":9
			},
			"pbrMetallicRoughness":{
				"baseColorTexture":{
					"index":10
				},
				"metallicFactor":0,
				"metallicRoughnessTexture":{
					"index":11
				}
			}
		}
	],
	"meshes":[
		{
			"name":"Cube.002",
			"primitives":[
				{
					"attributes":{
						"POSITION":0,
						"NORMAL":1,
						"TEXCOORD_0":2
					},
					"indices":3,
					"material":0
				},
				{
					"attributes":{
						"POSITION":4,
						"NORMAL":5,
						"TEXCOORD_0":6
					},
					"indices":7,
					"material":1
				},
				{
					"attributes":{
						"POSITION":8,
						"NORMAL":9,
						"TEXCOORD_0":10
					},
					"indices":11,
					"material":2
				},
				{
					"attributes":{
						"POSITION":12,
						"NORMAL":13,
						"TEXCOORD_0":14
					},
					"indices":15,
					"material":3
				},
				{
					"attributes":{
						"POSITION":16,
						"NORMAL":17,
						"TEXCOORD_0":18
					},
					"indices":19,
					"material":4
				}
			]
		}
	],
	"textures":[
		{
			"sampler":0,
			"source":0
		},
		{
			"sampler":0,
			"source":1
		},
		{
			"sampler":0,
			"source":2
		},
		{
			"sampler":0,
			"source":3
		},
		{
			"sampler":0,
			"source":4
		},
		{
			"sampler":0,
			"source":5
		},
		{
			"sampler":0,
			"source":6
		},
		{
			"sampler":0,
			"source":7
		},
		{
			"sampler":0,
			"source":8
		},
		{
			"sampler":0,
			"source":9
		},
		{
			"sampler":0,
			"source":10
		},
		{
			"sampler":0,
			"source":11
		}
	],
	"images":[
		{
			"mimeType":"image/jpeg",
			"name":"T_BuildingWalls_01_nor_gl",
			"uri":"textures/T_BuildingWalls_01_nor_gl.jpg"
		},
		{
			"mimeType":"image/jpeg",
			"name":"T_BuildingWalls_01_diff",
			"uri":"textures/T_BuildingWalls_01_diff.jpg"
		},
		{
			"mimeType":"image/png",
			"name":"T_BuildingWalls_01_rough",
			"uri":"textures/T_BuildingWalls_01_rough.png"
		},
		{
			"mimeType":"image/jpeg",
			"name":"T_BuildingFacade_01_nor_gl",
			"uri":"textures/T_BuildingFacade_01_nor_gl.jpg"
		},
		{
			"mimeType":"image/jpeg",
			"name":"T_BuildingFacade_01_diff",
			"uri":"textures/T_BuildingFacade_01_diff.jpg"
		},
		{
			"mimeType":"image/png",
			"name":"T_BuildingFacade_01_rough",
			"uri":"textures/T_BuildingFacade_01_rough.png"
		},
		{
			"mimeType":"image/jpeg",
			"name":"T_BuildingRoof_01_nor_gl",
			"uri":"textures/T_BuildingRoof_01_nor_gl.jpg"
		},
		{
			"mimeType":"image/jpeg",
			"name":"T_BuildingRoof_01_diff",
			"uri":"textures/T_BuildingRoof_01_diff.jpg"
		},
		{
			"mimeType":"image/png",
			"name":"T_BuildingRoof_01_rough",
			"uri":"textures/T_BuildingRoof_01_rough.png"
		},
		{
			"mimeType":"image/jpeg",
			"name":"T_BuildingDoor_01_nor_gl",
			"uri":"textures/T_BuildingDoor_01_nor_gl.jpg"
		},
		{
			"mimeType":"image/jpeg",
			"name":"T_BuildingDoor_01_diff",
			"uri":"textures/T_BuildingDoor_01_diff.jpg"
		},
		{
			"mimeType":"image/png",
			"name":"T_BuildingDoor_01_rough",
			"uri":"textures/T_BuildingDoor_01_rough.png"
		}
	],
	"accessors":[
		{
			"bufferView":0,
			"componentType":5126,
			"count":474,
			"max":[
				10,
				20,
				10.29580307006836
			],
			"min":[
				-10,
				0,
				-10
			],
			"type":"VEC3"
		},
		{
			"bufferView":1,
			"componentType":5126,
			"count":474,
			"type":"VEC3"
		},
		{
			"bufferView":2,
			"componentType":5126,
			"count":474,
			"type":"VEC2"
		},
		{
			"bufferView":3,
			"componentType":5123,
			"count":1650,
			"type":"SCALAR"
		},
		{
			"bufferView":4,
			"componentType":5126,
			"count":826,
			"max":[
				10,
				25,
				10.29580307006836
			],
			"min":[
				-10,
				0,
				-10
			],
			"type":"VEC3"
		},
		{
			"bufferView":5,
			"componentType":5126,
			"count":826,
			"type":"VEC3"
		},
		{
			"bufferView":6,
			"componentType":5126,
			"count":826,
			"type":"VEC2"
		},
		{
			"bufferView":7,
			"componentType":5123,
			"count":1836,
			"type":"SCALAR"
		},
		{
			"bufferView":8,
			"componentType":5126,
			"count":52,
			"max":[
				10,
				25,
				10.29580307006836
			],
			"min":[
				-10,
				20,
				-10
			],
			"type":"VEC3"
		},
		{
			"bufferView":9,
			"componentType":5126,
			"count":52,
			"type":"VEC3"
		},
		{
			"bufferView":10,
			"componentType":5126,
			"count":52,
			"type":"VEC2"
		},
		{
			"bufferView":11,
			"componentType":5123,
			"count":144,
			"type":"SCALAR"
		},
		{
			"bufferView":12,
			"componentType":5126,
			"count":66,
			"max":[
				9,
				18,
				9.517053604125977
			],
			"min":[
				-9,
				6,
				9.214537620544434
			],
			"type":"VEC3"
		},
		{
			"bufferView":13,
			"componentType":5126,
			"count":66,
			"type":"VEC3"
		},
		{
			"bufferView":14,
			"componentType":5126,
			"count":66,
			"type":"VEC2"
		},
		{
			"bufferView":15,
			"componentType":5123,
			"count":108,
			"type":"SCALAR"
		},
		{
			"bufferView":16,
			"componentType":5126,
			"count":6,
			"max":[
				1,
				3,
				9.638713836669922
			],
			"min":[
				-1,
				0,
				9.638713836669922
			],
			"type":"VEC3"
		},
		{
			"bufferView":17,
			"componentType":5126,
			"count":6,
			"type":"VEC3"
		},
		{
			"bufferView":18,
			"componentType":5126,
			"count":6,
			"type":"VEC2"
		},
		{
			"bufferView":19,
			"componentType":5123,
			"count":12,
			"type":"SCALAR"
		}
	],
	"bufferViews":[
		{
			"buffer":0,
			"byteLength":5688,
			"byteOffset":0,
			"target":34962
		},
		{
			"buffer":0,
			"byteLength":5688,
			"byteOffset":5688,
			"target":34962
		},
		{
			"buffer":0,
			"byteLength":3792,
			"byteOffset":11376,
			"target":34962
		},
		{
			"buffer":0,
			"byteLength":3300,
			"byteOffset":15168,
			"target":34963
		},
		{
			"buffer":0,
			"byteLength":9912,
			"byteOffset":18468,
			"target":34962
		},
		{
			"buffer":0,
			"byteLength":9912,
			"byteOffset":28380,
			"target":34962
		},
		{
			"buffer":0,
			"byteLength":6608,
			"byteOffset":38292,
			"target":34962
		},
		{
			"buffer":0,
			"byteLength":3672,
			"byteOffset":44900,
			"target":34963
		},
		{
			"buffer":0,
			"byteLength":624,
			"byteOffset":48572,
			"target":34962
		},
		{
			"buffer":0,
			"byteLength":624,
			"byteOffset":49196,
			"target":34962
		},
		{
			"buffer":0,
			"byteLength":416,
			"byteOffset":49820,
			"target":34962
		},
		{
			"buffer":0,
			"byteLength":288,
			"byteOffset":50236,
			"target":34963
		},
		{
			"buffer":0,
			"byteLength":792,
			"byteOffset":50524,
			"target":34962
		},
		{
			"buffer":0,
			"byteLength":792,
			"byteOffset":51316,
			"target":34962
		},
		{
			"buffer":0,
			"byteLength":528,
			"byteOffset":52108,
			"target":34962
		},
		{
			"buffer":0,
			"byteLength":216,
			"byteOffset":52636,
			"target":34963
		},
		{
			"buffer":0,
			"byteLength":72,
			"byteOffset":52852,
			"target":34962
		},
		{
			"buffer":0,
			"byteLength":72,
			"byteOffset":52924,
			"target":34962
		},
		{
			"buffer":0,
			"byteLength":48,
			"byteOffset":52996,
			"target":34962
		},
		{
			"buffer":0,
			"byteLength":24,
			"byteOffset":53044,
			"target":34963
		}
	],
	"samplers":[
		{
			"magFilter":9728,
			"minFilter":9984
		}
	],
	"buffers":[
		{
			"byteLength":53068,
			"uri":"SM_House_01.bin"
		}
	]
}
