{
	"asset":{
		"generator":"Khronos glTF Blender I/O v4.5.47",
		"version":"2.0"
	},
	"scene":0,
	"scenes":[
		{
			"name":"Scene",
			"nodes":[
				0
			]
		}
	],
	"nodes":[
		{
			"mesh":0,
			"name":"SM_Track_GroundLevel_01"
		}
	],
	"materials":[
		{
			"doubleSided":true,
			"name":"M_TrackRoad_01",
			"normalTexture":{
				"index":0
			},
			"pbrMetallicRoughness":{
				"baseColorTexture":{
					"index":1
				},
				"metallicFactor":0,
				"metallicRoughnessTexture":{
					"index":2
				}
			}
		},
		{
			"doubleSided":true,
			"name":"M_TrackSidewalk_01",
			"normalTexture":{
				"index":3
			},
			"pbrMetallicRoughness":{
				"baseColorTexture":{
					"index":4
				},
				"metallicFactor":0,
				"metallicRoughnessTexture":{
					"index":5
				}
			}
		}
	],
	"meshes":[
		{
			"name":"Plane.016",
			"primitives":[
				{
					"attributes":{
						"POSITION":0,
						"NORMAL":1,
						"TEXCOORD_0":2
					},
					"indices":3,
					"material":0
				},
				{
					"attributes":{
						"POSITION":4,
						"NORMAL":5,
						"TEXCOORD_0":6
					},
					"indices":7,
					"material":1
				}
			]
		}
	],
	"textures":[
		{
			"sampler":0,
			"source":0
		},
		{
			"sampler":0,
			"source":1
		},
		{
			"sampler":0,
			"source":2
		},
		{
			"sampler":0,
			"source":3
		},
		{
			"sampler":0,
			"source":4
		},
		{
			"sampler":0,
			"source":5
		}
	],
	"images":[
		{
			"mimeType":"image/jpeg",
			"name":"T_TrackRoad_01_nor_gl",
			"uri":"textures/T_TrackRoad_01_nor_gl.jpg"
		},
		{
			"mimeType":"image/jpeg",
			"name":"T_TrackRoad_01_diff.jpg",
			"uri":"textures/T_TrackRoad_01_diff.jpg.jpg"
		},
		{
			"mimeType":"image/png",
			"name":"T_TrackRoad_01_rough",
			"uri":"textures/T_TrackRoad_01_rough.png"
		},
		{
			"mimeType":"image/jpeg",
			"name":"T_TrackSidewalk_01_nor_gl.jpg",
			"uri":"textures/T_TrackSidewalk_01_nor_gl.jpg.jpg"
		},
		{
			"mimeType":"image/jpeg",
			"name":"T_TrackSidewalk_01_diff.jpg",
			"uri":"textures/T_TrackSidewalk_01_diff.jpg.jpg"
		},
		{
			"mimeType":"image/png",
			"name":"T_TrackSidewalk_01_rough.jpg",
			"uri":"textures/T_TrackSidewalk_01_rough.jpg.png"
		}
	],
	"accessors":[
		{
			"bufferView":0,
			"componentType":5126,
			"count":8,
			"max":[
				25,
				0.09999999403953552,
				30
			],
			"min":[
				5,
				0,
				0
			],
			"type":"VEC3"
		},
		{
			"bufferView":1,
			"componentType":5126,
			"count":8,
			"type":"VEC3"
		},
		{
			"bufferView":2,
			"componentType":5126,
			"count":8,
			"type":"VEC2"
		},
		{
			"bufferView":3,
			"componentType":5123,
			"count":18,
			"type":"SCALAR"
		},
		{
			"bufferView":4,
			"componentType":5126,
			"count":16,
			"max":[
				30,
				0.30000001192092896,
				30
			],
			"min":[
				0,
				0.09999999403953552,
				0
			],
			"type":"VEC3"
		},
		{
			"bufferView":5,
			"componentType":5126,
			"count":16,
			"type":"VEC3"
		},
		{
			"bufferView":6,
			"componentType":5126,
			"count":16,
			"type":"VEC2"
		},
		{
			"bufferView":7,
			"componentType":5123,
			"count":24,
			"type":"SCALAR"
		}
	],
	"bufferViews":[
		{
			"buffer":0,
			"byteLength":96,
			"byteOffset":0,
			"target":34962
		},
		{
			"buffer":0,
			"byteLength":96,
			"byteOffset":96,
			"target":34962
		},
		{
			"buffer":0,
			"byteLength":64,
			"byteOffset":192,
			"target":34962
		},
		{
			"buffer":0,
			"byteLength":36,
			"byteOffset":256,
			"target":34963
		},
		{
			"buffer":0,
			"byteLength":192,
			"byteOffset":292,
			"target":34962
		},
		{
			"buffer":0,
			"byteLength":192,
			"byteOffset":484,
			"target":34962
		},
		{
			"buffer":0,
			"byteLength":128,
			"byteOffset":676,
			"target":34962
		},
		{
			"buffer":0,
			"byteLength":48,
			"byteOffset":804,
			"target":34963
		}
	],
	"samplers":[
		{
			"magFilter":9728,
			"minFilter":9984
		}
	],
	"buffers":[
		{
			"byteLength":852,
			"uri":"SM_Track_GroundLevel_01.bin"
		}
	]
}
